<svg xmlns="http://www.w3.org/2000/svg" viewBox="0 0 1200 630" role="img" aria-labelledby="t d">
<title id="t">How to download public X videos in HD on any device</title><desc id="d">Original Downloader-X Guides illustration showing a public X post, copied link, quality choice, and saved MP4 file.</desc>
<defs><linearGradient id="bg" x1="0" x2="1" y1="0" y2="1"><stop stop-color="#071426"/><stop offset=".58" stop-color="#173d75"/><stop offset="1" stop-color="#0ea5a8"/></linearGradient><filter id="s"><feDropShadow dx="0" dy="12" stdDeviation="15" flood-opacity=".24"/></filter></defs>
<rect width="1200" height="630" rx="42" fill="url(#bg)"/><circle cx="1045" cy="100" r="210" fill="#67e8f9" opacity=".12"/><circle cx="150" cy="590" r="240" fill="#2563eb" opacity=".18"/>
<text x="70" y="82" fill="#a5f3fc" font-family="system-ui,sans-serif" font-size="24" font-weight="700" letter-spacing="3">DOWNLOADER-X GUIDES</text>
<text x="70" y="160" fill="#fff" font-family="system-ui,sans-serif" font-size="57" font-weight="800">Download public X videos</text><text x="70" y="224" fill="#fff" font-family="system-ui,sans-serif" font-size="57" font-weight="800">in HD on any device</text>
<text x="70" y="274" fill="#dbeafe" font-family="system-ui,sans-serif" font-size="25">Copy the exact post link → review real quality options → save responsibly</text>
<g filter="url(#s)" font-family="system-ui,sans-serif">
<g transform="translate(70 330)"><rect width="235" height="190" rx="25" fill="#fff"/><rect x="25" y="24" width="58" height="58" rx="17" fill="#101827"/><text x="54" y="64" fill="#fff" font-size="32" text-anchor="middle" font-weight="800">X</text><text x="25" y="112" fill="#0f274d" font-size="23" font-weight="800">1. Public post</text><text x="25" y="146" fill="#64748b" font-size="18">Open the exact post</text><text x="25" y="174" fill="#64748b" font-size="18">and copy its URL.</text></g>
<g transform="translate(335 330)"><rect width="235" height="190" rx="25" fill="#fff"/><circle cx="54" cy="53" r="29" fill="#dbeafe"/><path d="M40 53h29m-12-12 12 12-12 12" fill="none" stroke="#2563eb" stroke-width="7" stroke-linecap="round" stroke-linejoin="round"/><text x="25" y="112" fill="#0f274d" font-size="23" font-weight="800">2. Paste link</text><text x="25" y="146" fill="#64748b" font-size="18">Use the X downloader</text><text x="25" y="174" fill="#64748b" font-size="18">without sharing a login.</text></g>
<g transform="translate(600 330)"><rect width="235" height="190" rx="25" fill="#fff"/><circle cx="54" cy="53" r="29" fill="#ccfbf1"/><text x="54" y="61" fill="#0f766e" font-size="20" text-anchor="middle" font-weight="800">HD</text><text x="25" y="112" fill="#0f274d" font-size="23" font-weight="800">3. Pick quality</text><text x="25" y="146" fill="#64748b" font-size="18">Choose only a variant</text><text x="25" y="174" fill="#64748b" font-size="18">the source actually offers.</text></g>
<g transform="translate(865 330)"><rect width="235" height="190" rx="25" fill="#fff"/><circle cx="54" cy="53" r="29" fill="#dcfce7"/><path d="M41 54l9 9 18-23" fill="none" stroke="#16a36f" stroke-width="7" stroke-linecap="round" stroke-linejoin="round"/><text x="25" y="112" fill="#0f274d" font-size="23" font-weight="800">4. Verify file</text><text x="25" y="146" fill="#64748b" font-size="18">Play video and audio,</text><text x="25" y="174" fill="#64748b" font-size="18">then retain the source.</text></g></g>
<text x="70" y="585" fill="#bfdbfe" font-family="system-ui,sans-serif" font-size="18">Original illustration · No screenshot or media copied from X</text></svg>