<svg xmlns="http://www.w3.org/2000/svg" width="1200" height="675" viewBox="0 0 1200 675" role="img" aria-labelledby="title desc"><title id="title">Safe Downloads guide illustration</title><desc id="desc">Safe Downloads video guide artwork for Downloader-X.</desc><defs><linearGradient id="bg" x1="0" y1="0" x2="1" y2="1"><stop stop-color="#34d399"/><stop offset="1" stop-color="#047857"/></linearGradient><linearGradient id="accent" x1="0" y1="0" x2="1" y2="0"><stop stop-color="#34d399"/><stop offset="1" stop-color="#047857"/></linearGradient></defs><rect width="1200" height="675" fill="#080d1b"/><circle cx="1030" cy="120" r="300" fill="#34d399" opacity=".12"/><circle cx="260" cy="610" r="310" fill="#047857" opacity=".10"/><path d="M0 526c260-94 438 84 676-8 181-70 324-95 524-42v199H0z" fill="#111a30"/><text x="110" y="172" fill="#34d399" font-family="Arial,sans-serif" font-size="25" font-weight="800" letter-spacing="4">DOWNLOADER-X GUIDE</text><text x="110" y="274" fill="#fff" font-family="Arial,sans-serif" font-size="72" font-weight="800">Safe Downloads</text><text x="110" y="350" fill="#fff" font-family="Arial,sans-serif" font-size="72" font-weight="800">Video Guide</text><rect x="110" y="391" width="310" height="9" rx="4.5" fill="url(#accent)"/><text x="110" y="451" fill="#b9c5d8" font-family="Arial,sans-serif" font-size="27">Privacy • File checks • Permissions</text><path d="M945 102l142 58v107c0 102-59 171-142 210-83-39-142-108-142-210V160z" fill="#10b981"/><path d="M875 277l46 46 94-108" fill="none" stroke="#fff" stroke-width="28" stroke-linecap="round" stroke-linejoin="round"/></svg>